<svg width="16" height="8" viewBox="0 0 16 8" fill="none" xmlns="http://www.w3.org/2000/svg">
<path d="M14.6299 4.5C14.906 4.5 15.1299 4.27614 15.1299 4C15.1299 3.72386 14.906 3.5 14.6299 3.5V4.5ZM0.646699 3.64645C0.451437 3.84171 0.451437 4.15829 0.646699 4.35355L3.82868 7.53553C4.02394 7.7308 4.34052 7.7308 4.53579 7.53553C4.73105 7.34027 4.73105 7.02369 4.53579 6.82843L1.70736 4L4.53579 1.17157C4.73105 0.976311 4.73105 0.659728 4.53579 0.464466C4.34052 0.269204 4.02394 0.269204 3.82868 0.464466L0.646699 3.64645ZM14.6299 3.5L1.00025 3.5V4.5L14.6299 4.5V3.5Z" fill="#FFC726"/>
</svg>
