<svg width="20" height="20" viewBox="0 0 20 20" fill="none" xmlns="http://www.w3.org/2000/svg">
<path d="M19.1056 0.892069C17.9164 -0.297356 15.9882 -0.297356 14.7989 0.892069L14.5269 1.16418L18.8335 5.47153L19.1056 5.19941C20.2948 4.00999 20.2948 2.08149 19.1056 0.892069Z" fill="#303030"/>
<path d="M12.6489 3.03723L13.6925 1.99346L17.9986 6.30015L16.9549 7.34392L12.6489 3.03723Z" fill="#303030"/>
<path d="M12.3022 10.7992L14.0879 12.5851L16.2676 8.30796L15.1031 7.14319L12.3022 10.7992Z" fill="#303030"/>
<path d="M9.09562 9.25269L3.37877 13.6337C3.2097 14.4389 3.43708 15.3108 4.06223 15.936C4.68737 16.5612 5.55908 16.7887 6.36423 16.6196L10.7446 10.9018L9.09562 9.25269Z" fill="#303030"/>
<path d="M14.2705 6.30608L13.6954 5.73096L10.04 8.53223L11.4697 9.96205L14.2705 6.30608Z" fill="#303030"/>
<path d="M12.8561 4.89589L11.6915 3.73108L7.41504 5.91122L9.20067 7.69717L12.8561 4.89589Z" fill="#303030"/>
<path d="M6.82129 17.9476C6.86421 18.4567 7.07996 18.9538 7.46936 19.3433C8.34474 20.2188 9.76398 20.2188 10.6393 19.3433L13.5246 13.6819L11.5796 11.7366L6.82129 17.9476Z" fill="#303030"/>
<path d="M6.31702 6.47156L0.656534 9.35729C-0.218845 10.2328 -0.218845 11.6523 0.656534 12.5277C1.04597 12.9172 1.54304 13.133 2.05199 13.1759L8.26209 8.41689L6.31702 6.47156Z" fill="#303030"/>
</svg>
