<svg width="15" height="18" viewBox="0 0 15 18" fill="none" xmlns="http://www.w3.org/2000/svg">
<path d="M0.492188 9.44385L2.59157 9.14838L2.76566 10.3735L0.666275 10.669L0.492188 9.44385Z" fill="#FFC726"/>
<path d="M0 6.00916L2.09942 5.71421L2.43983 8.10567L0.340412 8.40062L0 6.00916Z" fill="#FFC726"/>
<path d="M0.817871 11.7154L1.7042 17.9283H3.84614L2.9175 11.4192L0.817871 11.7154Z" fill="#FFC726"/>
<path d="M11.1567 17.9281H13.2987L14.2082 11.5688L12.1086 11.2727L11.1567 17.9281Z" fill="#FFC726"/>
<path d="M12.5786 7.95813L12.9005 5.70879L14.9999 6.00636L14.678 8.2557L12.5786 7.95813Z" fill="#FFC726"/>
<path d="M12.248 10.2266L12.4221 9.00147L14.5215 9.29693L14.3474 10.522L12.248 10.2266Z" fill="#FFC726"/>
<path d="M0.608589 3.14435L1.61554 2.83509L1.77185 3.3392L5.83629 2.0909L5.67998 1.58679L6.68696 1.27753L6.37427 0.269312L5.36733 0.578573L5.21102 0.0744629L1.14657 1.32276L1.30292 1.82687L0.295898 2.13613L0.608589 3.14435Z" fill="#FFC726"/>
<path d="M6.43359 11.4639V17.9283H8.55401V11.4639C7.88102 11.6352 7.14517 11.645 6.43359 11.4639Z" fill="#FFC726"/>
<path d="M10.1743 6.45396C9.17798 7.42001 8.3676 7.66547 7.65263 7.88202C6.96713 8.08964 6.37512 8.2689 5.56466 9.054L5.12842 9.48815C6.34985 10.8459 8.46355 10.8933 9.74731 9.61561C10.6776 8.6898 10.91 7.32842 10.4446 6.18494L10.1743 6.45396Z" fill="#FFC726"/>
<path d="M9.43313 5.69941L9.86927 5.26536C8.6449 3.90596 6.53258 3.86182 5.25037 5.13794C4.32011 6.06375 4.08771 7.42512 4.55311 8.56858L4.82346 8.29952C5.81974 7.33347 6.63012 7.08804 7.34506 6.87149C8.03055 6.66388 8.62268 6.48454 9.43313 5.69941Z" fill="#FFC726"/>
<path d="M9.15549 2.08809L13.2158 3.33509L13.3721 2.83098L14.3812 3.14091L14.6938 2.13269L13.6847 1.82276L13.841 1.31865L9.78077 0.0716553L9.62446 0.575765L8.61535 0.265836L8.30273 1.27409L9.3118 1.58398L9.15549 2.08809Z" fill="#FFC726"/>
</svg>
