<svg width="15" height="15" viewBox="0 0 15 15" fill="none" xmlns="http://www.w3.org/2000/svg">
<mask id="mask0_1_2461" style="mask-type:alpha" maskUnits="userSpaceOnUse" x="0" y="0" width="15" height="15">
<circle cx="7.5" cy="7.5" r="7.5" fill="#D9D9D9"/>
</mask>
<g mask="url(#mask0_1_2461)">
<path d="M18.75 0H-3.75V15H18.75V0Z" fill="#FF9933"/>
<path d="M18.75 5H-3.75V10H18.75V5Z" fill="white"/>
<path d="M18.75 10H-3.75V15H18.75V10Z" fill="#128807"/>
<path d="M7.5 9.5C8.60457 9.5 9.5 8.60457 9.5 7.5C9.5 6.39543 8.60457 5.5 7.5 5.5C6.39543 5.5 5.5 6.39543 5.5 7.5C5.5 8.60457 6.39543 9.5 7.5 9.5Z" fill="#000088"/>
<path d="M7.5 9.25C8.4665 9.25 9.25 8.4665 9.25 7.5C9.25 6.5335 8.4665 5.75 7.5 5.75C6.5335 5.75 5.75 6.5335 5.75 7.5C5.75 8.4665 6.5335 9.25 7.5 9.25Z" fill="white"/>
<path d="M7.50039 7.8499C7.69369 7.8499 7.85039 7.6932 7.85039 7.4999C7.85039 7.3066 7.69369 7.1499 7.50039 7.1499C7.30709 7.1499 7.15039 7.3066 7.15039 7.4999C7.15039 7.6932 7.30709 7.8499 7.50039 7.8499Z" fill="#000088"/>
<path d="M9.22407 7.81578C9.27198 7.82209 9.31593 7.78836 9.32224 7.74045C9.32855 7.69254 9.29482 7.64859 9.24691 7.64228C9.199 7.63597 9.15504 7.6697 9.14874 7.71761C9.14243 7.76552 9.17615 7.80948 9.22407 7.81578Z" fill="#000088"/>
<path d="M7.50043 9.25068L7.56043 8.20068L7.50043 7.70068L7.44043 8.20068L7.50043 9.25068Z" fill="#000088"/>
<path d="M9.08418 8.25107C9.12883 8.26957 9.18001 8.24836 9.19851 8.20372C9.217 8.15907 9.1958 8.10789 9.15115 8.08939C9.10651 8.0709 9.05532 8.0921 9.03683 8.13675C9.01833 8.18139 9.03954 8.23258 9.08418 8.25107Z" fill="#000088"/>
<path d="M7.0479 9.19118L7.37761 8.19249L7.44907 7.694L7.2617 8.16143L7.0479 9.19118Z" fill="#000088"/>
<path d="M8.83544 8.63522C8.87378 8.66464 8.92871 8.65741 8.95813 8.61907C8.98755 8.58073 8.98032 8.5258 8.94198 8.49638C8.90364 8.46696 8.84871 8.47419 8.81929 8.51253C8.78987 8.55087 8.79711 8.6058 8.83544 8.63522Z" fill="#000088"/>
<path d="M6.62559 9.01614L7.20256 8.13681L7.40059 7.6738L7.09863 8.07681L6.62559 9.01614Z" fill="#000088"/>
<path d="M8.49646 8.94182C8.52588 8.98016 8.58081 8.98739 8.61915 8.95797C8.65748 8.92855 8.66472 8.87363 8.6353 8.83529C8.60588 8.79695 8.55095 8.78972 8.51261 8.81914C8.47427 8.84855 8.46704 8.90348 8.49646 8.94182Z" fill="#000088"/>
<path d="M6.26331 8.73756L7.04819 8.03753L7.35932 7.64155L6.96334 7.95267L6.26331 8.73756Z" fill="#000088"/>
<path d="M8.08909 9.15074C8.10758 9.19539 8.15877 9.21659 8.20342 9.19809C8.24806 9.1796 8.26926 9.12842 8.25077 9.08377C8.23228 9.03912 8.18109 9.01792 8.13645 9.03641C8.0918 9.05491 8.0706 9.10609 8.08909 9.15074Z" fill="#000088"/>
<path d="M5.98454 8.3753L6.92386 7.90226L7.32688 7.6003L6.86386 7.79834L5.98454 8.3753Z" fill="#000088"/>
<path d="M7.64212 9.24704C7.64843 9.29496 7.69238 9.32868 7.74029 9.32238C7.7882 9.31607 7.82193 9.27211 7.81562 9.2242C7.80931 9.17629 7.76536 9.14256 7.71745 9.14887C7.66954 9.15518 7.63581 9.19913 7.64212 9.24704Z" fill="#000088"/>
<path d="M5.80985 7.95327L6.8396 7.73946L7.30703 7.5521L6.80854 7.62355L5.80985 7.95327Z" fill="#000088"/>
<path d="M7.18519 9.22358C7.17889 9.27149 7.21261 9.31544 7.26052 9.32175C7.30844 9.32806 7.35239 9.29433 7.3587 9.24642C7.365 9.19851 7.33128 9.15455 7.28337 9.14825C7.23545 9.14194 7.1915 9.17567 7.18519 9.22358Z" fill="#000088"/>
<path d="M5.75029 7.49994L6.80029 7.55994L7.30029 7.49994L6.80029 7.43994L5.75029 7.49994Z" fill="#000088"/>
<path d="M6.74966 9.08369C6.73117 9.12834 6.75237 9.17953 6.79702 9.19802C6.84166 9.21651 6.89285 9.19531 6.91134 9.15066C6.92983 9.10602 6.90863 9.05483 6.86398 9.03634C6.81934 9.01785 6.76815 9.03905 6.74966 9.08369Z" fill="#000088"/>
<path d="M5.81004 7.04741L6.80873 7.37713L7.30722 7.44858L6.83979 7.26122L5.81004 7.04741Z" fill="#000088"/>
<path d="M6.36551 8.83496C6.3361 8.87329 6.34333 8.92822 6.38167 8.95764C6.42 8.98706 6.47493 8.97983 6.50435 8.94149C6.53377 8.90315 6.52654 8.84822 6.4882 8.8188C6.44986 8.78939 6.39493 8.79662 6.36551 8.83496Z" fill="#000088"/>
<path d="M5.98459 6.62511L6.86392 7.20207L7.32693 7.40011L6.92392 7.09814L5.98459 6.62511Z" fill="#000088"/>
<path d="M6.05891 8.49573C6.02057 8.52515 6.01334 8.58007 6.04276 8.61841C6.07218 8.65675 6.12711 8.66398 6.16544 8.63457C6.20378 8.60515 6.21102 8.55022 6.1816 8.51188C6.15218 8.47354 6.09725 8.46631 6.05891 8.49573Z" fill="#000088"/>
<path d="M6.26293 6.26208L6.96296 7.04697L7.35894 7.3581L7.04781 6.96212L6.26293 6.26208Z" fill="#000088"/>
<path d="M5.85024 8.08836C5.80559 8.10685 5.78439 8.15804 5.80288 8.20268C5.82138 8.24733 5.87256 8.26853 5.91721 8.25004C5.96185 8.23154 5.98306 8.18036 5.96456 8.13571C5.94607 8.09107 5.89488 8.06987 5.85024 8.08836Z" fill="#000088"/>
<path d="M6.62568 5.98405L7.09871 6.92337L7.40068 7.32639L7.20264 6.86337L6.62568 5.98405Z" fill="#000088"/>
<path d="M5.75418 7.64114C5.70626 7.64745 5.67254 7.6914 5.67885 7.73931C5.68515 7.78722 5.72911 7.82095 5.77702 7.81464C5.82493 7.80834 5.85866 7.76438 5.85235 7.71647C5.84604 7.66856 5.80209 7.63483 5.75418 7.64114Z" fill="#000088"/>
<path d="M7.04771 5.80936L7.26152 6.83911L7.44888 7.30654L7.37743 6.80805L7.04771 5.80936Z" fill="#000088"/>
<path d="M5.7774 7.18422C5.72949 7.17791 5.68553 7.21164 5.67923 7.25955C5.67292 7.30746 5.70665 7.35141 5.75456 7.35772C5.80247 7.36403 5.84642 7.3303 5.85273 7.28239C5.85904 7.23448 5.82531 7.19052 5.7774 7.18422Z" fill="#000088"/>
<path d="M7.50104 5.74932L7.44104 6.79932L7.50104 7.29932L7.56104 6.79932L7.50104 5.74932Z" fill="#000088"/>
<path d="M5.91728 6.74868C5.87264 6.73019 5.82145 6.75139 5.80296 6.79604C5.78447 6.84068 5.80567 6.89187 5.85031 6.91036C5.89496 6.92886 5.94614 6.90765 5.96464 6.86301C5.98313 6.81836 5.96193 6.76718 5.91728 6.74868Z" fill="#000088"/>
<path d="M7.95357 5.80882L7.62385 6.80751L7.5524 7.306L7.73976 6.83857L7.95357 5.80882Z" fill="#000088"/>
<path d="M6.16553 6.36503C6.12719 6.33561 6.07227 6.34284 6.04285 6.38118C6.01343 6.41952 6.02066 6.47444 6.059 6.50386C6.09734 6.53328 6.15227 6.52605 6.18168 6.48771C6.2111 6.44937 6.20387 6.39444 6.16553 6.36503Z" fill="#000088"/>
<path d="M8.37538 5.98411L7.79842 6.86343L7.60038 7.32645L7.90234 6.92343L8.37538 5.98411Z" fill="#000088"/>
<path d="M6.50452 6.05818C6.4751 6.01984 6.42017 6.01261 6.38183 6.04203C6.34349 6.07145 6.33626 6.12637 6.36568 6.16471C6.3951 6.20305 6.45002 6.21028 6.48836 6.18086C6.5267 6.15145 6.53393 6.09652 6.50452 6.05818Z" fill="#000088"/>
<path d="M8.73767 6.26219L7.95278 6.96223L7.64166 7.35821L8.03764 7.04708L8.73767 6.26219Z" fill="#000088"/>
<path d="M6.91189 5.84926C6.89339 5.80461 6.84221 5.78341 6.79756 5.80191C6.75291 5.8204 6.73171 5.87158 6.75021 5.91623C6.7687 5.96088 6.81988 5.98208 6.86453 5.96359C6.90918 5.94509 6.93038 5.89391 6.91189 5.84926Z" fill="#000088"/>
<path d="M9.01644 6.6247L8.07711 7.09774L7.6741 7.3997L8.13711 7.20166L9.01644 6.6247Z" fill="#000088"/>
<path d="M7.35886 5.75296C7.35255 5.70504 7.3086 5.67132 7.26069 5.67762C7.21278 5.68393 7.17905 5.72789 7.18536 5.7758C7.19166 5.82371 7.23562 5.85744 7.28353 5.85113C7.33144 5.84482 7.36517 5.80087 7.35886 5.75296Z" fill="#000088"/>
<path d="M9.19113 7.04673L8.16138 7.26054L7.69394 7.4479L8.19244 7.37645L9.19113 7.04673Z" fill="#000088"/>
<path d="M7.81578 5.77642C7.82209 5.72851 7.78836 5.68456 7.74045 5.67825C7.69254 5.67194 7.64859 5.70567 7.64228 5.75358C7.63597 5.80149 7.6697 5.84545 7.71761 5.85175C7.76552 5.85806 7.80948 5.82433 7.81578 5.77642Z" fill="#000088"/>
<path d="M9.25068 7.50006L8.20068 7.44006L7.70068 7.50006L8.20068 7.56006L9.25068 7.50006Z" fill="#000088"/>
<path d="M8.25132 5.91631C8.26981 5.87166 8.24861 5.82047 8.20396 5.80198C8.15932 5.78349 8.10813 5.80469 8.08964 5.84934C8.07114 5.89398 8.09235 5.94517 8.13699 5.96366C8.18164 5.98215 8.23282 5.96095 8.25132 5.91631Z" fill="#000088"/>
<path d="M9.19094 7.95259L8.19224 7.62287L7.69375 7.55142L8.16119 7.73878L9.19094 7.95259Z" fill="#000088"/>
<path d="M8.63546 6.16504C8.66488 6.12671 8.65765 6.07178 8.61931 6.04236C8.58097 6.01294 8.52604 6.02017 8.49663 6.05851C8.46721 6.09685 8.47444 6.15178 8.51278 6.1812C8.55112 6.21061 8.60604 6.20338 8.63546 6.16504Z" fill="#000088"/>
<path d="M9.01638 8.37514L8.13706 7.79818L7.67404 7.60014L8.07706 7.9021L9.01638 8.37514Z" fill="#000088"/>
<path d="M8.94206 6.50427C8.9804 6.47485 8.98764 6.41993 8.95822 6.38159C8.9288 6.34325 8.87387 6.33602 8.83553 6.36543C8.79719 6.39485 8.78996 6.44978 8.81938 6.48812C8.8488 6.52646 8.90373 6.53369 8.94206 6.50427Z" fill="#000088"/>
<path d="M8.73805 8.73792L8.03802 7.95303L7.64204 7.6419L7.95316 8.03788L8.73805 8.73792Z" fill="#000088"/>
<path d="M9.15074 6.9114C9.19539 6.8929 9.21659 6.84172 9.19809 6.79707C9.1796 6.75243 9.12842 6.73123 9.08377 6.74972C9.03912 6.76821 9.01792 6.8194 9.03641 6.86404C9.05491 6.90869 9.10609 6.92989 9.15074 6.9114Z" fill="#000088"/>
<path d="M8.3753 9.01595L7.90226 8.07663L7.6003 7.67361L7.79834 8.13663L8.3753 9.01595Z" fill="#000088"/>
<path d="M9.24729 7.35886C9.2952 7.35255 9.32893 7.3086 9.32262 7.26069C9.31631 7.21278 9.27236 7.17905 9.22445 7.18536C9.17654 7.19166 9.14281 7.23562 9.14912 7.28353C9.15542 7.33144 9.19938 7.36517 9.24729 7.35886Z" fill="#000088"/>
<path d="M7.95375 9.19064L7.73995 8.16089L7.55258 7.69346L7.62404 8.19195L7.95375 9.19064Z" fill="#000088"/>
</g>
</svg>
