<svg width="24" height="15" viewBox="0 0 24 15" fill="none" xmlns="http://www.w3.org/2000/svg">
<path d="M4.0226 14.9993C3.84235 14.9993 3.66237 14.9408 3.52723 14.8243C1.25264 12.8638 0 10.2626 0 7.49986C0 4.73766 1.25223 2.13688 3.52594 0.176598C3.7904 -0.0514228 4.22656 -0.057626 4.5003 0.162928C4.77385 0.383405 4.7812 0.747012 4.51669 0.975071C2.49274 2.72001 1.37809 5.0372 1.37809 7.49986C1.37809 9.96306 2.49311 12.2806 4.51784 14.0257C4.78239 14.2537 4.77513 14.6173 4.50158 14.8378C4.36777 14.9457 4.19505 14.9993 4.0226 14.9993Z" fill="#303030"/>
<path d="M6.3163 13.0197C6.13604 13.0197 5.95606 12.9611 5.82092 12.8446C4.1605 11.4136 3.24609 9.51504 3.24609 7.49881C3.24609 5.4832 4.16004 3.58513 5.81959 2.15417C6.08404 1.92608 6.5203 1.91995 6.7939 2.14043C7.0675 2.36091 7.07485 2.72451 6.81034 2.95257C5.40056 4.16818 4.62414 5.78271 4.62414 7.49881C4.62414 9.21546 5.40092 10.8303 6.81145 12.0461C7.07604 12.2741 7.06874 12.6377 6.79518 12.8582C6.66146 12.966 6.48874 13.0197 6.3163 13.0197Z" fill="#303030"/>
<path d="M8.61581 11.0429C8.43555 11.0429 8.25557 10.9844 8.12043 10.8679C7.07423 9.96616 6.49805 8.77031 6.49805 7.50067C6.49805 6.23164 7.07372 5.03625 8.11905 4.1347C8.38341 3.90664 8.81967 3.90032 9.09336 4.12088C9.367 4.34131 9.37445 4.70492 9.10999 4.93302C8.31433 5.61926 7.87614 6.53111 7.87614 7.50071C7.87614 8.47076 8.31469 9.38296 9.11105 10.0694C9.37564 10.2974 9.36834 10.661 9.09474 10.8815C8.96097 10.9893 8.78825 11.0429 8.61581 11.0429Z" fill="#303030"/>
<path d="M19.4951 15C19.3226 15 19.1499 14.9464 19.0161 14.8385C18.7426 14.6179 18.7354 14.2543 19 14.0263C21.0254 12.2811 22.1409 9.96318 22.1409 7.49949C22.1409 5.03629 21.0259 2.71872 19.0012 0.973662C18.7366 0.745642 18.7439 0.382035 19.0175 0.161519C19.2911 -0.059073 19.7273 -0.052908 19.9918 0.175074C22.2663 2.13548 23.519 4.73667 23.519 7.49949C23.519 10.2629 22.2659 12.8645 19.9904 14.825C19.8553 14.9415 19.6753 15 19.4951 15Z" fill="#303030"/>
<path d="M17.2036 13.0218C17.0311 13.0218 16.8583 12.9681 16.7245 12.8602C16.4511 12.6396 16.4439 12.276 16.7085 12.0481C18.1198 10.8323 18.897 9.21704 18.897 7.4999C18.897 5.7833 18.1202 4.16839 16.7097 2.95267C16.4451 2.72465 16.4524 2.36104 16.7259 2.14052C16.9995 1.91993 17.4357 1.9261 17.7002 2.15408C19.3606 3.58519 20.275 5.48367 20.275 7.4999C20.275 9.51674 19.3601 11.4157 17.6989 12.8469C17.5637 12.9633 17.3838 13.0218 17.2036 13.0218Z" fill="#303030"/>
<path d="M14.9009 11.0422C14.7283 11.0422 14.5555 10.9885 14.4218 10.8805C14.1483 10.6599 14.1412 10.2963 14.4058 10.0684C15.2029 9.3819 15.6418 8.46936 15.6418 7.49885C15.6418 6.52879 15.2032 5.6166 14.4069 4.9302C14.1423 4.70218 14.1496 4.33857 14.4231 4.11806C14.6967 3.89747 15.133 3.90363 15.3975 4.13165C16.4437 5.03336 17.0198 6.22921 17.0198 7.49885C17.0198 8.76914 16.4431 9.96541 15.396 10.8672C15.2609 10.9837 15.081 11.0422 14.9009 11.0422Z" fill="#303030"/>
<path d="M11.764 9.22215C10.6341 9.22215 9.71484 8.44918 9.71484 7.49908C9.71484 6.54897 10.6341 5.776 11.764 5.776C12.894 5.776 13.8132 6.54897 13.8132 7.49908C13.8132 8.44918 12.894 9.22215 11.764 9.22215Z" fill="#303030"/>
</svg>
