<svg width="28" height="20" viewBox="0 0 28 20" fill="none" xmlns="http://www.w3.org/2000/svg">
<path d="M9.57059 17.0008C9.31816 16.9999 9.07542 16.9035 8.89115 16.731C7.97871 15.8647 7.25212 14.8218 6.7556 13.6658C6.25908 12.5097 6.00302 11.2647 6.00302 10.0066C6.00302 8.74842 6.25908 7.50341 6.7556 6.34737C7.25212 5.19132 7.97871 4.14841 8.89115 3.28214C9.08777 3.1227 9.33758 3.04384 9.59011 3.06148C9.84263 3.07912 10.079 3.19196 10.2516 3.37719C10.4241 3.56241 10.5199 3.80623 10.5196 4.05937C10.5194 4.31251 10.423 4.5561 10.25 4.74093C9.53977 5.42174 8.97458 6.2392 8.58848 7.14412C8.20237 8.04905 8.00333 9.02273 8.00333 10.0066C8.00333 10.9904 8.20237 11.9641 8.58848 12.869C8.97458 13.774 9.53977 14.5914 10.25 15.2722C10.3961 15.409 10.4978 15.5865 10.5418 15.7817C10.5859 15.9769 10.5703 16.1809 10.4971 16.3671C10.4239 16.5534 10.2964 16.7134 10.1312 16.8264C9.96603 16.9393 9.77072 17.0001 9.57059 17.0008ZM5.57389 19.6786C5.75999 19.4914 5.86445 19.2381 5.86445 18.9742C5.86445 18.7102 5.75999 18.457 5.57389 18.2698C4.45606 17.2033 3.56623 15.9211 2.95825 14.5008C2.35028 13.0805 2.03681 11.5515 2.03681 10.0066C2.03681 8.46161 2.35028 6.93271 2.95825 5.51239C3.56623 4.09208 4.45606 2.80988 5.57389 1.74341C5.76734 1.55659 5.87865 1.30057 5.88334 1.03168C5.88802 0.762785 5.7857 0.503044 5.59887 0.309596C5.41205 0.116148 5.15603 0.00483858 4.88714 0.000154044C4.61825 -0.00453049 4.35851 0.0977937 4.16506 0.284617C2.84887 1.53878 1.80105 3.04715 1.0851 4.71828C0.36916 6.38942 0 8.18854 0 10.0066C0 11.8246 0.36916 13.6237 1.0851 15.2949C1.80105 16.966 2.84887 18.4744 4.16506 19.7285C4.2612 19.819 4.37432 19.8895 4.49787 19.936C4.62142 19.9825 4.75296 20.004 4.88489 19.9994C5.01681 19.9947 5.14651 19.964 5.26649 19.9089C5.38647 19.8539 5.49434 19.7756 5.58389 19.6786H5.57389ZM19.0927 16.731C20.0052 15.8647 20.7318 14.8218 21.2283 13.6658C21.7248 12.5097 21.9809 11.2647 21.9809 10.0066C21.9809 8.74842 21.7248 7.50341 21.2283 6.34737C20.7318 5.19132 20.0052 4.14841 19.0927 3.28214C18.9969 3.19226 18.8844 3.12212 18.7615 3.07574C18.6386 3.02936 18.5078 3.00763 18.3765 3.01181C18.2452 3.01598 18.116 3.04598 17.9963 3.10007C17.8766 3.15417 17.7688 3.23132 17.6789 3.3271C17.589 3.42289 17.5189 3.53544 17.4725 3.65833C17.4261 3.78122 17.4044 3.91204 17.4086 4.04333C17.4127 4.17462 17.4427 4.30379 17.4968 4.42349C17.5509 4.54318 17.6281 4.65105 17.7239 4.74093C18.4379 5.41952 19.0065 6.23625 19.3951 7.14148C19.7836 8.0467 19.984 9.02149 19.984 10.0066C19.984 10.9917 19.7836 11.9665 19.3951 12.8717C19.0065 13.7769 18.4379 14.5936 17.7239 15.2722C17.531 15.4528 17.4174 15.7023 17.4081 15.9663C17.3987 16.2304 17.4943 16.4873 17.6739 16.6811C17.7682 16.7828 17.8826 16.8637 18.0099 16.9187C18.1372 16.9738 18.2746 17.0017 18.4133 17.0008C18.6657 16.9999 18.9085 16.9035 19.0927 16.731ZM23.8088 19.7285C25.1289 18.4766 26.1801 16.969 26.8985 15.2975C27.6169 13.6261 27.9874 11.8259 27.9874 10.0066C27.9874 8.18729 27.6169 6.38706 26.8985 4.71562C26.1801 3.04418 25.1289 1.53654 23.8088 0.284617C23.6122 0.12518 23.3624 0.0463168 23.1099 0.0639593C22.8573 0.0816019 22.6209 0.194435 22.4484 0.379663C22.2758 0.564891 22.18 0.808704 22.1803 1.06184C22.1806 1.31498 22.277 1.55858 22.4499 1.74341C23.5678 2.80988 24.4576 4.09208 25.0656 5.51239C25.6736 6.93271 25.987 8.46161 25.987 10.0066C25.987 11.5515 25.6736 13.0805 25.0656 14.5008C24.4576 15.9211 23.5678 17.2033 22.4499 18.2698C22.2571 18.4503 22.1435 18.6998 22.1342 18.9639C22.1248 19.2279 22.2204 19.4849 22.4 19.6786C22.4931 19.779 22.606 19.8593 22.7315 19.9143C22.8569 19.9693 22.9924 19.9979 23.1294 19.9983C23.3818 19.9975 23.6246 19.9011 23.8088 19.7285ZM15.9953 10.0066C15.9953 9.61135 15.8781 9.22499 15.6585 8.89636C15.4389 8.56773 15.1268 8.3116 14.7617 8.16035C14.3965 8.0091 13.9947 7.96952 13.6071 8.04663C13.2194 8.12374 12.8634 8.31406 12.5839 8.59354C12.3044 8.87301 12.1141 9.22908 12.037 9.61672C11.9599 10.0044 11.9994 10.4062 12.1507 10.7713C12.3019 11.1365 12.5581 11.4486 12.8867 11.6681C13.2153 11.8877 13.6017 12.0049 13.9969 12.0049C14.5269 12.0049 15.0352 11.7944 15.41 11.4196C15.7847 11.0449 15.9953 10.5366 15.9953 10.0066Z" fill="#DB9B2A"/>
</svg>
