<svg width="22" height="22" viewBox="0 0 22 22" fill="none" xmlns="http://www.w3.org/2000/svg">
<path d="M21.4647 12.5363C21.2396 12.4798 21.0145 12.5363 20.8176 12.6776C20.0862 13.2991 19.2422 13.8076 18.3139 14.1466C17.4418 14.4856 16.4853 14.6551 15.4726 14.6551C13.1939 14.6551 11.1121 13.7228 9.62112 12.2256C8.13013 10.7283 7.20177 8.63784 7.20177 6.34961C7.20177 5.38911 7.37056 4.45687 7.65188 3.60938C7.96134 2.70538 8.41145 1.88614 9.00222 1.17989C9.2554 0.869145 9.19914 0.417148 8.88969 0.1629C8.69277 0.0216509 8.46771 -0.0348488 8.24265 0.0216508C5.85144 0.671396 3.76968 2.11214 2.27869 4.03312C0.843958 5.92586 0 8.27059 0 10.8131C0 13.8923 1.2378 16.689 3.2633 18.723C5.2888 20.757 8.04573 22 11.1402 22C13.7284 22 16.1196 21.096 18.0326 19.5988C19.9737 18.0733 21.3803 15.898 21.971 13.4121C22.0836 13.0166 21.8585 12.6211 21.4647 12.5363Z" fill="black"/>
</svg>
