<svg width="15" height="15" viewBox="0 0 15 15" fill="none" xmlns="http://www.w3.org/2000/svg">
<mask id="mask0_1_2573" style="mask-type:alpha" maskUnits="userSpaceOnUse" x="0" y="0" width="15" height="15">
<circle cx="7.5" cy="7.5" r="7.5" fill="#D9D9D9"/>
</mask>
<g mask="url(#mask0_1_2573)">
<path d="M15.75 0H-6.75V15H15.75V0Z" fill="white"/>
<path d="M15.75 0H-1.125V15H15.75V0Z" fill="#01411C"/>
<path d="M7.3125 12C9.79778 12 11.8125 9.98528 11.8125 7.5C11.8125 5.01472 9.79778 3 7.3125 3C4.82722 3 2.8125 5.01472 2.8125 7.5C2.8125 9.98528 4.82722 12 7.3125 12Z" fill="white"/>
<path d="M11.2032 9.56088C12.906 8.04734 13.0593 5.44004 11.5458 3.73732C10.0323 2.03459 7.42495 1.88122 5.72222 3.39475C4.01949 4.90829 3.86612 7.51559 5.37966 9.21832C6.8932 10.921 9.5005 11.0744 11.2032 9.56088Z" fill="#01411C"/>
<path d="M8.95342 4.13269L10.849 6.26518L8.06199 5.65413L10.6759 4.51034L9.2335 6.97208L8.95342 4.13269Z" fill="white"/>
</g>
</svg>
