<svg width="15" height="11" viewBox="0 0 15 11" fill="none" xmlns="http://www.w3.org/2000/svg">
<path d="M14.4153 1.12812C13.8739 0.484472 12.8742 0.221924 10.965 0.221924H4.03481C2.08195 0.221924 1.06534 0.501408 0.525919 1.18667C0 1.85479 0 2.83923 0 4.20171V6.7986C0 9.43817 0.624 10.7783 4.03481 10.7783H10.9651C12.6207 10.7783 13.5381 10.5467 14.1316 9.97865C14.7403 9.39617 15 8.44512 15 6.7986V4.20171C15 2.76486 14.9593 1.77462 14.4153 1.12812ZM9.63005 5.85868L6.48305 7.50341C6.41269 7.54018 6.33576 7.55842 6.25892 7.55842C6.17192 7.55842 6.08511 7.535 6.00823 7.48846C5.86345 7.40073 5.77505 7.24381 5.77505 7.07455V3.79565C5.77505 3.62668 5.86321 3.46991 6.00769 3.38213C6.15223 3.29436 6.33198 3.28836 6.48194 3.36626L9.62893 5.00039C9.78905 5.08352 9.8896 5.24881 9.88984 5.42915C9.89003 5.60963 9.78992 5.77517 9.63005 5.85868Z" fill="#FFC726"/>
</svg>
