<svg width="22" height="22" viewBox="0 0 22 22" fill="none" xmlns="http://www.w3.org/2000/svg">
<path d="M19.0158 0.993208C18.5098 0.993208 18.0991 1.40387 18.0991 1.90987V2.67392C16.1301 0.957 13.6189 0 10.9427 0C4.90875 0 0 4.92662 0 10.9817C0 11.4877 0.410667 11.8983 0.916667 11.8983C1.42267 11.8983 1.83333 11.4877 1.83333 10.9817C1.83333 5.93725 5.91983 1.83333 10.9427 1.83333C13.1459 1.83333 15.2158 2.61342 16.8474 4.01454H16.0073C15.5013 4.01454 15.0906 4.42521 15.0906 4.93121C15.0906 5.43721 15.5013 5.84788 16.0073 5.84788H19.0158C19.5218 5.84788 19.9325 5.43721 19.9325 4.93121V1.90987C19.9325 1.40387 19.5218 0.993208 19.0158 0.993208Z" fill="#FFC726"/>
<path d="M21.0834 10.1017C20.5774 10.1017 20.1667 10.5124 20.1667 11.0184C20.1667 16.0628 16.0802 20.1667 11.0573 20.1667C8.87981 20.1667 6.83197 19.4059 5.20947 18.0354H6.08993C6.59593 18.0354 7.0066 17.6248 7.0066 17.1188C7.0066 16.6128 6.59593 16.2021 6.08993 16.2021H3.08097C3.07272 16.2021 3.06539 16.2044 3.0576 16.2044C3.02276 16.2053 2.98839 16.2099 2.95356 16.2149C2.92789 16.2186 2.90222 16.2209 2.87701 16.2269C2.84676 16.2337 2.81697 16.2447 2.78718 16.2548C2.75968 16.2644 2.73172 16.2727 2.70514 16.2846C2.67993 16.2961 2.6561 16.3107 2.63181 16.3245C2.60293 16.341 2.57451 16.357 2.54747 16.3763C2.5406 16.3813 2.53281 16.3841 2.52593 16.3896C2.51035 16.4015 2.49843 16.4161 2.48376 16.429C2.45947 16.4501 2.43518 16.4711 2.41318 16.495C2.39256 16.517 2.37468 16.5399 2.35681 16.5633C2.33893 16.5866 2.32152 16.61 2.30547 16.6348C2.28943 16.6604 2.27568 16.687 2.26239 16.7136C2.2491 16.7397 2.23672 16.7663 2.22618 16.7938C2.21564 16.8222 2.20739 16.8506 2.1996 16.88C2.19226 16.9079 2.18447 16.9359 2.17989 16.9648C2.17439 16.9973 2.1721 17.0299 2.16981 17.0629C2.16843 17.0816 2.16431 17.1 2.16431 17.1192V20.1406C2.16431 20.6466 2.57497 21.0572 3.08097 21.0572C3.58697 21.0572 3.99764 20.6466 3.99764 20.1406V19.4118C5.95151 21.0751 8.42514 22 11.0573 22C17.0913 22 22.0001 17.0734 22.0001 11.0184C22.0001 10.5124 21.5894 10.1017 21.0834 10.1017Z" fill="#FFC726"/>
</svg>
