<svg width="20" height="20" viewBox="0 0 20 20" fill="none" xmlns="http://www.w3.org/2000/svg">
<path d="M5.19827 14.8022C4.96947 14.5734 4.59844 14.5734 4.3696 14.8022L0.171631 18.9998C-0.0572102 19.2286 -0.0572102 19.5996 0.171631 19.8284C0.400432 20.0572 0.771468 20.0572 1.00031 19.8284L5.19827 15.6308C5.42711 15.402 5.42711 15.031 5.19827 14.8022Z" fill="#303030"/>
<path d="M6.50501 16.4301L3.93726 18.9972C3.70841 19.226 3.70841 19.597 3.93726 19.8258C4.16606 20.0546 4.53709 20.0546 4.76593 19.8258L7.33369 17.2587C7.56253 17.03 7.56253 16.659 7.33369 16.4301C7.10485 16.2013 6.73382 16.2013 6.50501 16.4301Z" fill="#303030"/>
<path d="M1.00031 16.0636L3.56807 13.4965C3.79691 13.2677 3.79691 12.8967 3.56807 12.6679C3.33927 12.4391 2.96823 12.4391 2.73939 12.6679L0.171631 15.235C-0.0572102 15.4638 -0.0572102 15.8348 0.171631 16.0636C0.400471 16.2924 0.771507 16.2924 1.00031 16.0636Z" fill="#303030"/>
<path d="M9.23389 7.25029L10.251 10.3808H13.5428L14.5602 7.25025L11.897 5.31543L9.23389 7.25029Z" fill="#303030"/>
<path d="M5.59033 13.2307C6.48593 14.3294 7.66029 15.1834 8.97696 15.6934L8.17684 13.2307H5.59033Z" fill="#303030"/>
<path d="M14.8057 15.6934C16.1223 15.1834 17.2967 14.3294 18.1923 13.2307H15.6058L14.8057 15.6934Z" fill="#303030"/>
<path d="M5.08136 3.70447C4.31065 4.89318 3.86215 6.26794 3.78711 7.69016L5.88172 6.16837L5.08136 3.70447Z" fill="#303030"/>
<path d="M18.7056 3.70447L17.9053 6.16833L19.9999 7.69012C19.9248 6.2679 19.4763 4.89314 18.7056 3.70447Z" fill="#303030"/>
<path d="M12.4775 4.29449L15.3461 6.37864L16.7511 5.92233L17.8328 2.5926C17.1229 1.82985 16.2684 1.20362 15.3132 0.757812L12.4775 2.81747V4.29449Z" fill="#303030"/>
<path d="M8.43926 6.37862L11.3079 4.29447V2.82163L8.46895 0.759277C7.51511 1.20497 6.66174 1.83065 5.95264 2.5925L7.0343 5.92235L8.43926 6.37862Z" fill="#303030"/>
<path d="M6.67912 7.0387L3.8374 9.10332C3.96655 10.1646 4.30137 11.1632 4.80066 12.0582H8.30687L9.17356 10.8653L8.07791 7.4929L6.67912 7.0387Z" fill="#303030"/>
<path d="M10.1224 11.5557L9.25586 12.7483L10.34 16.0852C10.8438 16.1834 11.3639 16.2354 11.8959 16.2354C12.428 16.2354 12.9481 16.1834 13.4518 16.0852L14.5359 12.7486L13.6691 11.5557H10.1224V11.5557Z" fill="#303030"/>
<path d="M15.7078 7.49294L14.6118 10.8654L15.4785 12.0583H18.9851C19.4844 11.1632 19.8192 10.1646 19.9484 9.10335L17.1065 7.0387L15.7078 7.49294Z" fill="#303030"/>
<path d="M13.987 0.272764C13.308 0.0914814 12.607 0 11.8922 0C11.1762 0 10.4738 0.091872 9.79346 0.273897L11.8893 1.79646L13.987 0.272764Z" fill="#303030"/>
</svg>
