<svg width="20" height="20" viewBox="0 0 20 20" fill="none" xmlns="http://www.w3.org/2000/svg">
<path d="M7.92725 14.0358L5.47394 15.5829L4.48914 14.5981L4.63074 14.4484C5.50186 13.5275 6.14853 12.4438 6.54297 11.2703C6.55548 11.2926 6.56754 11.3152 6.5802 11.3373C7.01553 12.0901 7.62177 12.7359 8.3432 13.2199C8.27713 12.8857 8.24219 12.5406 8.24219 12.1875C8.24219 11.3545 8.43521 10.5659 8.77838 9.86359C8.42697 9.27658 8.24219 8.6113 8.24219 7.91779C8.24219 6.3208 8.89252 4.75998 10.0264 3.63556C10.8662 2.80258 11.9803 2.3439 13.163 2.3439C15.619 2.3439 17.6172 4.34204 17.6172 6.7981C17.6172 7.35504 17.5102 7.91138 17.3065 8.43002C17.9396 9.06204 18.4145 9.85275 18.6658 10.7364C19.5282 9.57901 20.0008 8.16391 20 6.71661C19.9982 3.01208 16.9832 0 13.2791 0L13.2812 0.000152588C11.4967 0.00106812 9.8111 0.693665 8.54477 1.95084C7.67639 2.81296 6.99768 3.82278 6.52771 4.95255C6.05759 6.08246 5.81955 7.27554 5.82016 8.49915C5.82016 8.50479 5.82047 8.51028 5.82047 8.51578H5.82031C5.82031 10.4309 5.09552 12.2519 3.77945 13.6432L3.2515 14.2012L0 17.4609L2.53906 20L5.75867 16.7888L8.55225 15.027C8.6763 14.9489 8.80402 14.8758 8.93463 14.8074C8.74191 14.4691 8.58551 14.1077 8.47031 13.7283C8.2843 13.8226 8.10272 13.9252 7.92725 14.0358Z" fill="#303030"/>
<path d="M15.408 14.0883C16.0227 13.4735 16.7994 13.0754 17.642 12.9338C17.5076 13.7616 17.1221 14.5561 16.4852 15.193C15.8544 15.824 15.0689 16.2082 14.2498 16.3461C14.3876 15.4944 14.7871 14.7092 15.408 14.0883ZM10.6295 9.33746C11.2773 8.68973 12.0878 8.30215 12.9307 8.17413C12.8036 9.0509 12.4001 9.85947 11.762 10.4974C11.13 11.1295 10.3298 11.5318 9.46252 11.6631C9.58658 10.8113 9.97552 9.9913 10.6295 9.33746ZM9.45947 12.8456C10.6417 12.708 11.7361 12.1806 12.5907 11.3261C13.4532 10.4636 13.9814 9.35837 14.1132 8.16406C14.9813 8.28064 15.8195 8.67157 16.4852 9.33746C17.1604 10.0127 17.553 10.865 17.6635 11.7464C16.4988 11.8929 15.4209 12.4181 14.5794 13.2596C13.7298 14.109 13.2034 15.1979 13.0625 16.3744C12.1728 16.2682 11.311 15.8745 10.6297 15.193C9.97003 14.5335 9.58002 13.705 9.45947 12.8456Z" fill="#303030"/>
</svg>
