<svg width="22" height="20" viewBox="0 0 22 20" fill="none" xmlns="http://www.w3.org/2000/svg">
<path d="M20.9 0H2.2C1.61652 0 1.05694 0.231785 0.644365 0.644365C0.231785 1.05694 0 1.61652 0 2.2V17.6C0 18.1835 0.231785 18.7431 0.644365 19.1556C1.05694 19.5682 1.61652 19.8 2.2 19.8H19.8C20.3835 19.8 20.9431 19.5682 21.3556 19.1556C21.7682 18.7431 22 18.1835 22 17.6V5.5C22 5.20826 21.8841 4.92847 21.6778 4.72218C21.4715 4.51589 21.1917 4.4 20.9 4.4H3.3C3.00826 4.4 2.72847 4.28411 2.52218 4.07782C2.31589 3.87153 2.2 3.59174 2.2 3.3C2.2 3.00826 2.31589 2.72847 2.52218 2.52218C2.72847 2.31589 3.00826 2.2 3.3 2.2H22V1.1C22 0.808262 21.8841 0.528472 21.6778 0.322182C21.4715 0.115892 21.1917 0 20.9 0ZM18.15 10.45C18.4763 10.45 18.7953 10.5468 19.0667 10.7281C19.338 10.9094 19.5495 11.1671 19.6744 11.4686C19.7993 11.7701 19.832 12.1018 19.7683 12.4219C19.7046 12.742 19.5475 13.036 19.3167 13.2667C19.086 13.4975 18.792 13.6546 18.4719 13.7183C18.1518 13.782 17.8201 13.7493 17.5186 13.6244C17.2171 13.4995 16.9594 13.288 16.7781 13.0167C16.5968 12.7453 16.5 12.4263 16.5 12.1C16.5 11.6624 16.6738 11.2427 16.9833 10.9333C17.2927 10.6238 17.7124 10.45 18.15 10.45Z" fill="#FFC726"/>
</svg>
